<svg xmlns="http://www.w3.org/2000/svg" xml:space="preserve" fill="none" viewBox="0 0 512 512"><path stroke="#000" stroke-width="4" d="M17.999975 17.999995H494.00002V494H17.999975Z"/><path stroke="#000" stroke-width="4" d="M36 172h440v304H36zm138-45.99999-8 8m-20 0 28-28m0-20.000002-48 48.000002M73.999991 66.000008 58 81.999999M58 102l35.99999-35.999992m20.00001 0L58 122.00001m76-56.000005L66 134.00001m88-68.000005L86 134.00001m88-68.000002-68 68.000002M58 66.000008h116v68.000002H58Zm396 60.000002-8 8m-20 0 28-28m0-20.000002-48 48.000002m-52.00001-68.000002L338 81.999999M338 102l35.99999-35.999992m20.00001 0-56 56.000002m76-56.000005-68 68.000005m88-68.000005-68 68.000005m88-68.000002-68 68.000002m-48-68.000002h116v68.000002H338Zm-148-4h132v102H190z"/><path fill="#000" d="M205 85h101v56.999992H205z"/><path fill="#fff" d="M252.864 112.968q0 7.424-1.536 12.672t-4.928 8.064q-3.328 2.816-8.768 2.816-7.744 0-11.456-6.208-3.648-6.272-3.648-17.344 0-7.424 1.472-12.672 1.536-5.247995 4.864-7.999995 3.328-2.816 8.768-2.816 7.68 0 11.456 6.208 3.776 6.143995 3.776 17.279995zm-24.704 0q0 9.408 2.112 14.08 2.176 4.672 7.36 4.672 5.12 0 7.296-4.608 2.24-4.672 2.24-14.144 0-9.344-2.24-14.015995-2.176-4.672-7.296-4.672-5.184 0-7.36 4.672Q228.16 103.624 228.16 112.968Zm61.31203 0q0 7.424-1.536 12.672t-4.928 8.064q-3.328 2.816-8.768 2.816-7.744 0-11.456-6.208-3.648-6.272-3.648-17.344 0-7.424 1.472-12.672 1.536-5.247995 4.864-7.999995 3.328-2.816 8.768-2.816 7.68 0 11.456 6.208 3.776 6.143995 3.776 17.279995zm-24.704 0q0 9.408 2.112 14.08 2.176 4.672 7.36 4.672 5.12 0 7.296-4.608 2.24-4.672 2.24-14.144 0-9.344-2.24-14.015995-2.176-4.672-7.296-4.672-5.184 0-7.36 4.672-2.112 4.671995-2.112 14.015995z" font-family="sans-serif" font-size="64" style="-inkscape-font-specification:sans-serif;text-align:center" text-anchor="middle"/><g transform="translate(0 -1.000005)"><path fill="#000" d="M237.02131 337.72265h-10.06932v-1.55733l3.98933-4.03199q1.13067-1.152 1.92-2.048.81066-.896 1.216-1.74933.40533-.85333.40533-1.89866 0-1.25867-.74667-1.89867-.74666-.66133-1.94133-.66133-1.13066 0-1.96266.384-.832.38401-1.70667 1.06667l-1.00266-1.25867q.896-.74667 2.048-1.25867 1.17333-.53332 2.62399-.53332 2.13333 0 3.37066 1.088t1.23733 2.96533q0 1.19466-.49066 2.23999-.49067 1.04534-1.36533 2.06932-.87467 1.024-2.048 2.15467l-3.17866 3.13599v.0853h7.70132z" font-size="21.3333" style="-inkscape-font-specification:sans-serif;text-align:center" text-anchor="middle"/><circle cx="121.98665" cy="342" r="14" stroke="#000" stroke-width="4"/><circle cx="121.98665" cy="390" r="14" stroke="#000" stroke-width="4"/><circle cx="389.98666" cy="342" r="14" stroke="#000" stroke-width="4"/><circle cx="389.98666" cy="390" r="14" stroke="#000" stroke-width="4"/><path stroke="#000" stroke-width="4" d="M165.98666 312h36v36h-36zm48 0h36v36h-36zm48 0h36v36h-36zm48 0h36v36h-36zm-144 48h36v36h-36zm48 0h36v36h-36zm48 0h36v36h-36zm48 0h36v36h-36zm-144 48h36v36h-36zm48 0h36v36h-36z"/><path stroke="#000" stroke-width="4.00002" d="M261.98666 408h83.999992v36H261.98666z"/><path fill="#000" d="m276.84001 385.61599 6.25066-13.52531h-8.21333v-1.70667H285.096v1.45067l-6.18666 13.78131zm51.13598-15.44531q2.00534 0 3.28533.93867 1.28001.93866 1.28001 2.70933 0 .91733-.40535 1.59999-.384.68267-1.04532 1.216-.66134.512-1.45067.91733.93867.46934 1.70666 1.024.768.55467 1.216 1.30133.46934.74667.46934 1.792 0 1.92-1.36534 3.05066-1.36532 1.10933-3.62665 1.10933-2.47467 0-3.79732-1.06666-1.30134-1.088-1.30134-3.02933 0-1.024.42668-1.792.44799-.78933 1.17331-1.344.72535-.55466 1.55735-.93866-1.13068-.64-1.89867-1.536-.76801-.91733-.76801-2.32533 0-1.152.59734-1.96266.59732-.81067 1.62132-1.23733 1.024-.42667 2.32533-.42667zm-.0213 1.51467q-1.19466 0-1.94133.57599-.74667.55467-.74667 1.62134 0 .78933.36266 1.32266.38401.53333 1.024.91733.64.36267 1.40801.704 1.10933-.46933 1.856-1.13066.76799-.66134.76799-1.81333 0-1.06667-.74667-1.62134-.74667-.57599-1.98399-.57599zm-3.17868 10.06931q0 1.10933.78936 1.856.78931.72533 2.43198.72533 1.55732 0 2.368-.72533.832-.74667.832-1.92 0-1.10933-.87469-1.83466-.87464-.74667-2.32533-1.30133l-.34133-.128q-1.408.61866-2.15466 1.38666-.72534.768-.72533 1.94133zm-135.77603 43.13601q0 1.64266-.29866 3.24266-.27733 1.57867-1.04533 2.88-.74667 1.28-2.13333 2.04799-1.36533.768-3.52.768-.42666 0-1.00266-.064-.576-.0427-.91733-.14933v-1.6q.83199.27734 1.87733.27734 1.49333 0 2.45333-.49067.98133-.49067 1.55733-1.32267.576-.85333.83199-1.96266.256-1.13066.29867-2.36799h-.128q-.49066.72533-1.36533 1.25866-.87467.512-2.26133.512-1.96266 0-3.17866-1.19467-1.19467-1.21599-1.19467-3.41332 0-1.6.59734-2.752.59733-1.152 1.68533-1.77066 1.10933-.61867 2.58133-.61867 1.45066 0 2.62399.74667 1.17333.72533 1.856 2.21866.68266 1.472.68266 3.75466zm-5.16265-5.14132q-1.32267 0-2.176.87466-.832.87467-.832 2.66666 0 1.472.704 2.32533.72533.832 2.21866.832 1.024 0 1.77067-.40533.74666-.42667 1.15199-1.06667.42667-.64.42667-1.32266 0-.91733-.36267-1.81333-.36266-.896-1.08799-1.49333t-1.81333-.59733zm53.20531 6.23998q0 2.47466-.512 4.22399-.51199 1.74933-1.64266 2.688-1.10933.93867-2.92266.93867-2.58133 0-3.81866-2.06933-1.216-2.09066-1.216-5.78132 0-2.47467.49067-4.22399.512-1.74935 1.62133-2.66667 1.10933-.93867 2.92266-.93867 2.55999 0 3.81866 2.06933 1.25866 2.04799 1.25866 5.75999zm-8.23465 0q0 3.13599.70401 4.69332.72533 1.55734 2.45332 1.55734 1.70666 0 2.432-1.536.74667-1.55733.74667-4.71466 0-3.11466-.74667-4.67199-.72534-1.55733-2.432-1.55733-1.728 0-2.45332 1.55733-.70401 1.55733-.70401 4.67199zm105.22659 7.63732h-8.512v-15.23198h8.512V420.08h-6.592v4.75733h6.20799v1.664h-6.20799v5.43999h6.592zm-11.88264-7.76532q0 3.86133-2.112 5.82399-2.09066 1.94133-5.84532 1.94133h-4.24533v-15.23198h4.69333q2.28266 0 3.96799.85334 1.70667.85333 2.624 2.51733.91733 1.66399.91733 4.09599zm-2.02665.064q0-3.05066-1.51468-4.45867-1.49333-1.42932-4.24532-1.42932h-2.49599v11.94664h2.06932q6.18667 0 6.18667-6.05865zm-13.54667.064q0 2.368-.81066 4.13866-.78933 1.74933-2.368 2.73066-1.55732.98134-3.83999.98134-2.36799 0-3.94666-.98134-1.55732-.98133-2.32533-2.75198-.76799-1.77067-.76799-4.13867 0-2.32533.76799-4.07466.768-1.77066 2.32533-2.752 1.57867-.98133 3.96799-.98133 2.28266 0 3.83999.98133 1.55734.96 2.34667 2.73066.81066 1.74933.81066 4.11733zm-12.03198 0q0 2.87999 1.21601 4.54399 1.216 1.64267 3.79732 1.64267 2.58133 0 3.77599-1.64267 1.216-1.664 1.216-4.54399 0-2.88-1.19466-4.50133-1.19466-1.64266-3.77598-1.64266-2.60267 0-3.81867 1.64266-1.21601 1.62133-1.21601 4.50133zm-13.88796 7.63732-5.01333-13.35465h-.0853q.064.66134.10667 1.792.0427 1.10933.0427 2.32533v9.23732h-1.77066v-15.23198h2.83733l4.69333 12.47998h.0853l4.77866-12.47998h2.81599v15.23198h-1.89866v-9.36532q0-1.10933.0427-2.19733.064-1.088.10667-1.77066h-.0853l-5.07734 13.33331zm-53.68535-54.51734q0-1.64266.27733-3.22132.29867-1.6 1.04533-2.88.768-1.30133 2.13333-2.06933 1.36533-.768 3.52001-.768.448 0 .98133.0427.55467.0427.896.14934v1.6q-.384-.128-.87468-.192-.49065-.064-.96-.064-1.47199 0-2.45332.49066-.98133.49067-1.55734 1.34399-.55466.85334-.81066 1.96268-.256 1.10933-.32 2.36799h.128q.49067-.74666 1.36533-1.25866.87467-.53333 2.24-.53333 1.98399 0 3.19999 1.21598 1.216 1.19467 1.216 3.41333 0 2.38933-1.32266 3.75466-1.30134 1.36533-3.52 1.36533-1.45066 0-2.62399-.72533-1.17334-.72533-1.87734-2.21866-.68266-1.49333-.68266-3.776zm5.16266 5.14133q1.344 0 2.17599-.85333.832-.87467.832-2.688 0-1.45066-.74666-2.304-.72533-.85333-2.19733-.85333-1.00267 0-1.74932.42667-.74667.40533-1.17333 1.06666-.40534.64-.40534 1.30134 0 .91733.36267 1.83466.36266.896 1.088 1.49333.72533.576 1.81332.576zm-48.448-8.08531q2.32533 0 3.712 1.17334 1.40799 1.17333 1.40799 3.30666 0 2.36799-1.51467 3.73333-1.49332 1.34399-4.18132 1.34399-1.19467 0-2.21867-.21333t-1.72799-.61867v-1.77066q.76799.46933 1.85599.74667 1.10933.256 2.112.256 1.68533 0 2.70933-.78934 1.04533-.81066 1.04533-2.49599 0-1.49333-.91733-2.28267-.91733-.81066-2.90133-.81066-.59733 0-1.36533.10667-.768.10666-1.23733.21333l-.93867-.59733.576-7.18933h7.63732v1.70667h-6.03732l-.36267 4.41599q.36267-.064.98133-.14933.61867-.0853 1.36534-.0853zm149.96267-41.96266H331.432v3.45598h-1.81333v-3.45598h-7.29599v-1.60001l7.16799-10.26132h1.94133v10.17598h2.21866zm-4.03199-1.68534v-4.79999q0-1.10933.0213-1.87733.0427-.78933.0853-1.49333h-.0853q-.17066.40533-.42667.87467-.25599.46933-.49066.78933l-4.56533 6.50665zm-45.08801-6.57062q0 1.53599-.87466 2.45332-.85334.896-2.28267 1.19467v.0853q1.81333.21334 2.70934 1.152.91733.93867.91733 2.45333 0 1.344-.61866 2.368-.61867 1.02399-1.92 1.59999-1.27999.576-3.30667.576-1.19466 0-2.21866-.192-1.024-.17066-1.96267-.64v-1.74933q.96.49067 2.06933.74667 1.10933.256 2.13333.256 2.048 0 2.944-.78933.91733-.81067.91733-2.21867 0-1.42933-1.13067-2.04799-1.10933-.64-3.13599-.64h-1.472v-1.6h1.49334q1.87732 0 2.83733-.78933.98134-.78933.98134-2.09067 0-1.10933-.74667-1.70666-.74667-.61866-2.02668-.61866-1.23733 0-2.11199.36266-.87466.36267-1.728.91733l-.93867-1.27999q.81067-.64 2.00533-1.10934 1.21601-.46933 2.75201-.46933 2.38932 0 3.54133 1.06667 1.17334 1.06666 1.17334 2.70933zM186.824 337.61599h-1.83467v-10.64532q0-.91733.0213-1.47199.0213-.55467.064-1.152-.34133.34133-.63999.576-.27734.23466-.68267.59733l-1.62134 1.32266-.98133-1.25866 4.11733-3.2h1.55734z" font-size="21.3333" style="-inkscape-font-specification:sans-serif;text-align:center" text-anchor="middle"/><path fill="#000" d="M140.61069 369.73336h-.91734v-5.32268q0-.45867.0107-.736.0107-.27734.032-.57601-.17067.17067-.32.288-.13867.11734-.34134.29867l-.81067.66134-.49067-.62934 2.05868-1.6h.77867zm-7.20003 0h-4.25601v-7.61602h4.25601v.84267h-3.29601v2.37867h3.10401v.832h-3.10401v2.72001h3.29601zm-5.94134-3.88268q0 1.93067-1.05601 2.91201-1.04533.97067-2.92266.97067h-2.12269v-7.61602h2.34669q1.14133 0 1.984.42666.85334.42667 1.31201 1.25868.45866.832.45866 2.048zm-1.01334.032q0-1.52534-.75733-2.22934-.74667-.71467-2.12267-.71467h-1.24801v5.97336h1.03468q3.09333 0 3.09333-3.02935zm-6.77335.032q0 1.18401-.40534 2.06934-.39467.87467-1.184 1.36534-.77867.49067-1.92001.49067-1.184 0-1.97333-.49067-.77868-.49067-1.16268-1.376-.384-.88534-.384-2.06934 0-1.16267.384-2.03734.384-.88534 1.16268-1.37601.78933-.49067 1.984-.49067 1.14133 0 1.92001.49067.77867.48 1.17333 1.36534.40534.87467.40534 2.05867zm-6.01601 0q0 1.44001.608 2.27201.608.82134 1.89867.82134t1.88801-.82134q.608-.832.608-2.27201 0-1.44-.59734-2.25067-.59733-.82134-1.88801-.82134-1.30133 0-1.90934.82134-.608.81067-.60799 2.25067zm-6.94402 3.81868-2.50667-6.67735h-.0427q.032.33066.0533.896.0213.55467.0213 1.16267v4.61868h-.88534v-7.61602h1.41867l2.34668 6.24002h.0427l2.38934-6.24002h1.408v7.61602h-.94934v-4.68268q0-.55467.0213-1.09867.032-.544.0533-.88534h-.0427l-2.53867 6.66669zm34.50682 42.16531q0 .768-.43733 1.22667-.42667.448-1.14134.59733v.0427q.90667.10667 1.35467.576.45867.46934.45867 1.22667 0 .67201-.30934 1.18401-.30933.512-.96.8-.64.288-1.65334.288-.59733 0-1.10933-.096-.51201-.0853-.98134-.32v-.87467q.48.24533 1.03467.37333t1.06667.128q1.024 0 1.472-.39466.45867-.40534.45867-1.10934 0-.71467-.56533-1.024-.55466-.32001-1.568-.32001h-.736v-.8h.74667q.93867 0 1.41867-.39467.49066-.39466.49066-1.04533 0-.55467-.37334-.85334-.37333-.30933-1.01333-.30933-.61867 0-1.056.18133t-.86401.45867l-.46933-.64q.40533-.32 1.00267-.55467.608-.23467 1.376-.23467 1.19467 0 1.77067.53334.58667.53333.58667 1.35467zm-8.67203 5.83468h-4.25601v-7.61602h4.25601v.84267h-3.29601v2.37867h3.10401v.832h-3.10401v2.72001h3.29601zm-5.94134-3.88268q0 1.93068-1.05601 2.91201-1.04533.97067-2.92267.97067h-2.12268v-7.61602h2.34668q1.14133 0 1.984.42667.85334.42666 1.31201 1.25867.45867.832.45867 2.048zm-1.01334.032q0-1.52534-.75734-2.22934-.74667-.71466-2.12267-.71466h-1.248v5.97335h1.03467q3.09334 0 3.09334-3.02935zm-6.77336.032q0 1.18401-.40533 2.06935-.39467.87467-1.184 1.36533-.77867.49067-1.92001.49067-1.184 0-1.97334-.49067-.77867-.49067-1.16267-1.376-.384-.88534-.384-2.06934 0-1.16267.384-2.03734.384-.88534 1.16267-1.376.78934-.49067 1.98401-.49067 1.14133 0 1.92.49067.77867.48 1.17334 1.36533.40533.87468.40533 2.05867zm-6.01601 0q0 1.44002.60801 2.27202.608.82133 1.89866.82133 1.29068 0 1.88801-.82133.608-.832.608-2.27202 0-1.44-.59734-2.25067-.59733-.82133-1.888-.82133-1.30134 0-1.90934.82133-.608.81067-.608 2.25067zm-6.94401 3.81868-2.50667-6.67735h-.0427q.032.33067.0533.896.0213.55467.0213 1.16267v4.61868h-.88534v-7.61602h1.41868l2.34668 6.24002h.0427l2.38934-6.24002h1.408v7.61602h-.94934v-4.68268q0-.55467.0213-1.09867.032-.54399.0533-.88534h-.0427l-2.53866 6.66669zm302.21338-3.96801q0 1.93067-1.05601 2.91201-1.04532.97067-2.92267.97067h-2.12268v-7.61603h2.34668q1.14135 0 1.984.42667.85334.42667 1.31201 1.25867.45867.832.45867 2.04801zm-1.01334.032q0-1.52534-.75734-2.22934-.74666-.71466-2.12267-.71466h-1.248v5.97334h1.03467q3.09334 0 3.09334-3.02934zm-6.76269 3.85068h-4.25601v-7.61603h4.25602v.84267h-3.29602v2.37868h3.10401v.832h-3.10401v2.72001h3.29602zm-10.57069 0-2.50668-6.67736h-.0427q.032.33067.0533.89601.0213.55466.0213 1.16268v4.61868h-.88533V410.032h1.41867l2.34667 6.24002h.0427l2.38934-6.24002h1.40801v7.61603h-.94934v-4.68268q0-.55467.0213-1.09867.032-.54401.0533-.88534h-.0427l-2.53867 6.66669zm-7.89336-7.61603q1.41867 0 2.09068.544.68267.53334.68267 1.62134 0 .60801-.22401 1.01334-.224.40533-.576.65067-.34133.24533-.72533.37333l2.09067 3.41335h-1.12l-1.84534-3.14667h-1.51467v3.14667h-.96001v-7.61603zm-.0533.83201h-1.088v2.82667h1.14134q.928 0 1.35466-.36267.42667-.37333.42667-1.088 0-.74666-.44799-1.056-.448-.32-1.38668-.32zm-4.08535 6.78402-.91733-2.35734h-3.01868l-.90667 2.35734h-.97067L374.86664 410h.864l2.96535 7.64802zm-1.20533-3.21068-.85334-2.30401q-.032-.0853-.10667-.30933-.0747-.224-.14933-.45867-.064-.24533-.10667-.37333-.0853.33066-.18133.65066-.0853.30934-.14933.49067l-.86401 2.30401zm32.99214-44.70398h-5.03468v-.77867l1.99467-2.01601q.56534-.576.96001-1.024.40533-.448.608-.87467.20266-.42667.20266-.94934 0-.62933-.37334-.94933-.37333-.33067-.97066-.33067-.56534 0-.98134.192-.416.192-.85334.53333l-.50134-.62933q.448-.37334 1.02401-.62934.58667-.26666 1.312-.26666 1.06667 0 1.68534.544t.61867 1.48267q0 .59733-.24534 1.12-.24533.52267-.68266 1.03467-.43734.512-1.02401 1.07734l-1.58934 1.568v.0427h3.85069zm-8.96004 0h-4.25601v-7.61603h4.25601v.84267h-3.29601v2.37868h3.10401v.832h-3.10401v2.72001h3.29601zm-5.94134-3.88268q0 1.93067-1.05601 2.91201-1.04533.97067-2.92267.97067h-2.12268v-7.61603h2.34668q1.14133 0 1.984.42667.85334.42667 1.312 1.25867.45867.832.45868 2.04801zm-1.01334.032q0-1.52534-.75734-2.22934-.74667-.71467-2.12268-.71467h-1.248v5.97335h1.03467q3.09335 0 3.09335-3.02934zm-6.77337.032q0 1.184-.40533 2.06934-.39467.87467-1.184 1.36534-.77867.49066-1.92001.49066-1.184 0-1.97334-.49066-.77867-.49067-1.16267-1.37601-.384-.88534-.384-2.06934 0-1.16267.384-2.03734.384-.88533 1.16267-1.376.78934-.49067 1.98401-.49067 1.14133 0 1.92001.49067.77866.48 1.17333 1.36533.40533.87467.40533 2.05868zm-6.01601 0q0 1.44.608 2.272.60801.82134 1.89867.82134 1.29067 0 1.88801-.82134.608-.832.608-2.272 0-1.44001-.59733-2.25068-.59733-.82133-1.888-.82133-1.30134 0-1.90934.82133-.608.81067-.60801 2.25068zm-6.94402 3.81868-2.50668-6.67736h-.0427q.032.33067.0533.896.0213.55467.0213 1.16268v4.61868h-.88533v-7.61603h1.41867l2.34667 6.24002h.0427l2.38934-6.24002h1.40801v7.61603h-.94934v-4.68269q0-.55466.0213-1.09867.032-.544.0533-.88533h-.0427l-2.53867 6.66669z" font-size="10.6667" style="-inkscape-font-specification:sans-serif;text-align:center" text-anchor="middle"/><path stroke="#000" stroke-width="4" d="M100 206h312v74H100z"/><path stroke="#000" stroke-linecap="round" stroke-width="4" d="m198.00001 248.00002 6 11m-16-11.00002-6 11m16-21.00002 6-11m-16 11.00002-6-11m23.00008 15.99997h-8.00015m12.00007 3.99989v12.00022m0-32.00021v12.0002m-15.99999 7.99979v12.00022m0-32.00021v12.0002m-3.99992 3.9999h-8.00016M204.99973 264H181.0003m23.99943-42H181.0003m-4.00029 24.99986v12.00022m.00001-32.00021v12.0002m206.99999 8.99995 6 11m-16-11.00002-6 11m16-21.00002 6-11m-16 11.00002-6-11m23.00008 15.99997h-8.00015m12.00007 3.99989v12.00022m0-32.00021v12.0002m-15.99999 7.99979v12.00022m0-32.00021v12.0002m-3.99992 3.9999h-8.00016M390.99973 264H367.0003m23.99943-42H367.0003m-4.00029 24.99986v12.00022m.00001-32.00021v12.0002m-41.00001 8.99995 6 11m-16-11.00002-6 11m16-21.00002 6-11m-16 11.00002-6-11m23.00008 15.99997h-8.00015m12.00007 3.99989v12.00022m0-32.00021v12.0002m-15.99999 7.99979v12.00022m0-32.00021v12.0002m-3.99992 3.9999h-8.00016M328.99973 264H305.0003m23.99943-42H305.0003m-4.00029 24.99986v12.00022m.00001-32.00021v12.0002m-41.00001 8.99995 6 11m-16-11.00002-6 11m16-21.00002 6-11m-16 11.00002-6-11m23.00008 15.99997h-8.00015m12.00007 3.99989v12.00022m0-32.00021v12.0002m-15.99999 7.99979v12.00022m0-32.00021v12.0002m-3.99992 3.9999h-8.00016M266.99973 264H243.0003m23.99943-42H243.0003m-4.00029 24.99986v12.00022m.00001-32.00021v12.0002m-103.00001 8.99995 6 11m-16-11.00002-6 11m16-21.00002 6-11m-16 11.00002-6-11m23.00008 15.99997h-8.00015m12.00007 3.99989v12.00022m0-32.00021v12.0002m-15.99999 7.99979v12.00022m0-32.00021v12.0002m-3.99992 3.9999h-8.00016M142.99973 264H119.0003m23.99943-42H119.0003m-4.00029 24.99986v12.00022m.00001-32.00021v12.0002"/></g></svg>